<svg width="281.000000" height="281.000000" viewBox="0 0 281 281" fill="none" xmlns="http://www.w3.org/2000/svg" xmlns:xlink="http://www.w3.org/1999/xlink">
	<desc>
			Created with Pixso.
	</desc>
	<defs>
		<filter id="filter_234_6569_dd" x="0.000000" y="0.000000" width="281.000000" height="281.000000" filterUnits="userSpaceOnUse" color-interpolation-filters="sRGB">
			<feFlood flood-opacity="0" result="BackgroundImageFix"/>
			<feColorMatrix in="SourceAlpha" type="matrix" values="0 0 0 0 0 0 0 0 0 0 0 0 0 0 0 0 0 0 127 0" result="hardAlpha"/>
			<feOffset dx="-1" dy="-1"/>
			<feGaussianBlur stdDeviation="2"/>
			<feComposite in2="hardAlpha" operator="out" k2="-1" k3="1"/>
			<feColorMatrix type="matrix" values="0 0 0 0 0.95294 0 0 0 0 0.94902 0 0 0 0 0.98039 0 0 0 1 0"/>
			<feBlend mode="normal" in2="BackgroundImageFix" result="effect_dropShadow_1"/>
			<feBlend mode="normal" in="SourceGraphic" in2="effect_dropShadow_1" result="shape"/>
			<feColorMatrix in="SourceAlpha" type="matrix" values="0 0 0 0 0 0 0 0 0 0 0 0 0 0 0 0 0 0 127 0" result="hardAlpha"/>
			<feOffset dx="-1" dy="2"/>
			<feGaussianBlur stdDeviation="6.66667"/>
			<feComposite in2="hardAlpha" operator="arithmetic" k2="-1" k3="1"/>
			<feColorMatrix type="matrix" values="0 0 0 0 0.17255 0 0 0 0 0 0 0 0 0 0.35686 0 0 0 0.12 0"/>
			<feBlend mode="normal" in2="shape" result="effect_innerShadow_2"/>
			<feColorMatrix in="SourceAlpha" type="matrix" values="0 0 0 0 0 0 0 0 0 0 0 0 0 0 0 0 0 0 127 0" result="hardAlpha"/>
			<feOffset dx="-1" dy="2"/>
			<feGaussianBlur stdDeviation="3.33333"/>
			<feComposite in2="hardAlpha" operator="arithmetic" k2="-1" k3="1"/>
			<feColorMatrix type="matrix" values="0 0 0 0 0.17255 0 0 0 0 0 0 0 0 0 0.35686 0 0 0 0.12 0"/>
			<feBlend mode="normal" in2="effect_innerShadow_2" result="effect_innerShadow_3"/>
			<feColorMatrix in="SourceAlpha" type="matrix" values="0 0 0 0 0 0 0 0 0 0 0 0 0 0 0 0 0 0 127 0" result="hardAlpha"/>
			<feOffset dx="1" dy="1"/>
			<feGaussianBlur stdDeviation="0.666667"/>
			<feComposite in2="hardAlpha" operator="arithmetic" k2="-1" k3="1"/>
			<feColorMatrix type="matrix" values="0 0 0 0 0.17255 0 0 0 0 0 0 0 0 0 0.35686 0 0 0 0.16 0"/>
			<feBlend mode="normal" in2="effect_innerShadow_3" result="effect_innerShadow_4"/>
		</filter>
	</defs>
	<g filter="url(#filter_234_6569_dd)">
		<path id="Vector" d="M222.18 36.33C222.18 21.47 234.23 9.42 249.09 9.42C263.94 9.42 276 21.47 276 36.33L276 168.9C276 228.06 228.05 276 168.89 276L114.1 276C54.94 276 7 228.06 7 168.9L7 60.78C7 31.07 31.07 7 60.79 7C90.5 7 114.59 31.07 114.5 60.78L114.5 126.65C114.5 134.85 121.14 141.48 129.34 141.48C135.51 141.48 140.98 137.65 143.19 131.88C144.57 128.32 146.67 125.12 149.32 122.47C154.19 117.59 160.91 114.6 168.35 114.6C175.8 114.6 182.51 117.59 187.36 122.47C190.03 125.12 192.14 128.32 193.48 131.88C195.69 137.65 201.17 141.48 207.34 141.48C215.54 141.48 222.18 134.85 222.18 126.65L222.18 36.33ZM195.32 60.81C195.32 75.64 183.27 87.69 168.41 87.69C153.58 87.69 141.52 75.64 141.52 60.79C141.52 45.96 153.55 33.9 168.41 33.9C183.27 33.9 195.32 45.96 195.32 60.81Z" fill="#F1EEFB" fill-opacity="1.000000" fill-rule="evenodd"/>
	</g>
</svg>
