<svg width="159.000000" height="26.000000" viewBox="0 0 159 26" fill="none" xmlns="http://www.w3.org/2000/svg" xmlns:xlink="http://www.w3.org/1999/xlink">
	<desc>
			Created with Pixso.
	</desc>
	<defs/>
	<path id="Vector" d="M45.54 5.69L45.54 20.08C45.54 20.33 45.34 20.54 45.08 20.54L41.29 20.54C41.03 20.54 40.83 20.33 40.83 20.08L40.83 9.2C40.83 8.95 40.62 8.74 40.37 8.74L36.49 8.74C36.23 8.74 36.03 8.95 36.03 9.2L36.03 20.08C36.03 20.33 35.82 20.54 35.57 20.54L31.77 20.54C31.52 20.54 31.31 20.33 31.31 20.08L31.31 5.69C31.31 5.44 31.52 5.23 31.77 5.23L45.08 5.23C45.33 5.23 45.54 5.44 45.54 5.69L45.54 5.69Z" fill="#131019" fill-opacity="1.000000" fill-rule="evenodd"/>
	<path id="Vector" d="M57.65 4.95C59.36 4.95 60.73 5.63 61.75 6.97C62.77 8.32 63.29 10.28 63.29 12.84C63.29 14.59 63.04 16.05 62.53 17.23C62.03 18.41 61.35 19.31 60.48 19.91C59.62 20.51 58.63 20.82 57.51 20.82C56.4 20.82 55.55 20.62 54.93 20.23C54.31 19.84 53.81 19.41 53.44 18.95L53.24 18.95C53.3 19.3 53.35 19.67 53.39 20.06C53.42 20.45 53.44 20.87 53.44 21.32L53.44 23.04C53.44 23.3 53.23 23.5 52.98 23.5L49.19 23.5C48.93 23.5 48.72 23.3 48.72 23.04L48.72 5.69C48.72 5.44 48.93 5.23 49.19 5.23L52.22 5.23C52.41 5.23 52.59 5.36 52.65 5.54L53.22 7.18L53.44 7.18C53.83 6.59 54.36 6.07 55.03 5.62C55.7 5.18 56.57 4.95 57.65 4.95L57.65 4.95ZM56 8.66C55.05 8.66 54.39 8.97 54.02 9.59C53.65 10.22 53.45 11.15 53.43 12.39L53.43 12.81C53.43 14.17 53.62 15.21 53.99 15.93C54.37 16.66 55.05 17.02 56.06 17.02C57.68 17.02 58.48 15.61 58.48 12.78C58.48 11.35 58.28 10.31 57.87 9.64C57.46 8.99 56.84 8.65 56 8.65L56 8.66Z" fill="#131019" fill-opacity="1.000000" fill-rule="evenodd"/>
	<path id="Vector" d="M72.54 4.93C74.53 4.93 76.08 5.39 77.18 6.32C78.27 7.25 78.82 8.61 78.82 10.39L78.82 20.08C78.82 20.33 78.61 20.54 78.36 20.54L75.85 20.54C75.67 20.54 75.51 20.43 75.43 20.27L74.64 18.48L74.52 18.48C73.87 19.31 73.18 19.91 72.46 20.27C71.73 20.64 70.74 20.82 69.47 20.82C68.12 20.82 66.99 20.42 66.1 19.62C65.21 18.82 64.76 17.58 64.76 15.91C64.76 14.24 65.33 13.09 66.47 12.3C67.62 11.51 69.29 11.07 71.51 10.98L73.68 10.91C73.93 10.9 74.13 10.7 74.13 10.45C74.13 9.7 73.94 9.16 73.56 8.83C73.18 8.49 72.65 8.32 71.98 8.32C71.32 8.32 70.62 8.43 69.89 8.64C69.3 8.82 68.7 9.03 68.1 9.27C67.87 9.36 67.6 9.26 67.5 9.04L66.45 6.72C66.34 6.49 66.45 6.22 66.67 6.11C67.41 5.76 68.22 5.49 69.11 5.29C70.17 5.04 71.31 4.92 72.54 4.92L72.54 4.93ZM72.71 13.62C71.54 13.66 70.73 13.87 70.26 14.25C69.79 14.63 69.56 15.15 69.56 15.8C69.56 16.38 69.73 16.8 70.07 17.05C70.4 17.31 70.83 17.44 71.35 17.44C72.13 17.44 72.79 17.21 73.33 16.73C73.87 16.26 74.14 15.61 74.14 14.79L74.14 14.05C74.14 13.79 73.92 13.58 73.66 13.58L72.71 13.62L72.71 13.62Z" fill="#131019" fill-opacity="1.000000" fill-rule="evenodd"/>
	<path id="Vector" d="M88.53 20.82C86.22 20.82 84.42 20.19 83.12 18.94C81.82 17.68 81.16 15.69 81.16 12.96C81.16 11.1 81.5 9.58 82.16 8.4C82.82 7.22 83.73 6.35 84.9 5.79C86.08 5.24 87.41 4.96 88.92 4.96C89.92 4.96 90.83 5.06 91.64 5.26C92.28 5.43 92.87 5.62 93.4 5.86C93.63 5.95 93.74 6.22 93.65 6.45L92.6 9.15C92.51 9.38 92.25 9.5 92.01 9.41C91.52 9.21 91.06 9.06 90.62 8.93C90.07 8.77 89.5 8.7 88.92 8.7C87.97 8.7 87.24 9.05 86.72 9.76C86.2 10.46 85.94 11.52 85.94 12.94C85.94 14.35 86.2 15.41 86.74 16.07C87.28 16.73 88.02 17.06 88.95 17.06C89.77 17.06 90.53 16.95 91.25 16.71C91.72 16.56 92.18 16.36 92.63 16.13C92.93 15.96 93.3 16.19 93.3 16.54L93.3 19.32C93.3 19.48 93.22 19.63 93.08 19.71C92.51 20.05 91.89 20.32 91.23 20.51C90.49 20.72 89.59 20.83 88.53 20.83L88.53 20.82Z" fill="#131019" fill-opacity="1.000000" fill-rule="evenodd"/>
	<path id="Vector" d="M109.97 8.85L105.84 8.85C105.59 8.85 105.38 9.06 105.38 9.31L105.38 20.19C105.38 20.44 105.17 20.65 104.92 20.65L101.15 20.65C100.9 20.65 100.69 20.44 100.69 20.19L100.69 9.31C100.69 9.06 100.49 8.85 100.23 8.85L96.1 8.85C95.85 8.85 95.64 8.65 95.64 8.39L95.64 5.8C95.64 5.54 95.85 5.34 96.1 5.34L109.97 5.34C110.22 5.34 110.43 5.54 110.43 5.8L110.43 8.39C110.43 8.65 110.22 8.85 109.97 8.85Z" fill="#131019" fill-opacity="1.000000" fill-rule="evenodd"/>
	<path id="Vector" d="M126.5 12.84C126.5 15.41 125.82 17.38 124.47 18.75C123.13 20.13 121.28 20.82 118.94 20.82C117.49 20.82 116.2 20.51 115.07 19.88C113.95 19.26 113.07 18.36 112.42 17.18C111.78 16 111.46 14.55 111.46 12.84C111.46 10.31 112.13 8.37 113.48 7C114.83 5.63 116.68 4.95 119.02 4.95C120.47 4.95 121.76 5.26 122.88 5.87C124.01 6.48 124.89 7.38 125.54 8.55C126.18 9.72 126.5 11.15 126.5 12.84ZM116.23 12.84C116.23 14.27 116.44 15.36 116.87 16.09C117.3 16.83 118.01 17.19 118.99 17.19C119.98 17.19 120.65 16.83 121.08 16.09C121.51 15.36 121.72 14.28 121.72 12.84C121.72 11.41 121.51 10.37 121.08 9.65C120.65 8.93 119.95 8.58 118.96 8.58C117.98 8.58 117.3 8.93 116.87 9.65C116.44 10.37 116.23 11.43 116.23 12.84L116.23 12.84Z" fill="#131019" fill-opacity="1.000000" fill-rule="evenodd"/>
	<path id="Vector" d="M137.82 4.95C139.53 4.95 140.9 5.63 141.92 6.97C142.95 8.32 143.46 10.28 143.46 12.84C143.46 14.59 143.21 16.05 142.7 17.23C142.2 18.41 141.52 19.31 140.65 19.91C139.79 20.51 138.8 20.82 137.68 20.82C136.57 20.82 135.72 20.62 135.1 20.23C134.48 19.84 133.98 19.41 133.61 18.95L133.41 18.95C133.47 19.3 133.52 19.67 133.56 20.06C133.59 20.45 133.61 20.87 133.61 21.32L133.61 23.04C133.61 23.3 133.4 23.5 133.15 23.5L129.35 23.5C129.1 23.5 128.89 23.3 128.89 23.04L128.89 5.69C128.89 5.44 129.1 5.23 129.35 5.23L132.39 5.23C132.59 5.23 132.76 5.36 132.82 5.54L133.39 7.18L133.61 7.18C134 6.59 134.53 6.07 135.2 5.62C135.87 5.18 136.74 4.95 137.82 4.95ZM136.18 8.66C135.23 8.66 134.57 8.97 134.2 9.59C133.82 10.22 133.63 11.15 133.61 12.39L133.61 12.81C133.61 14.17 133.79 15.21 134.17 15.93C134.54 16.66 135.23 17.02 136.23 17.02C137.85 17.02 138.66 15.61 138.66 12.78C138.66 11.35 138.45 10.31 138.04 9.64C137.64 8.99 137.01 8.65 136.17 8.65L136.18 8.66Z" fill="#131019" fill-opacity="1.000000" fill-rule="evenodd"/>
	<path id="Vector" d="M152.72 4.93C154.71 4.93 156.25 5.39 157.35 6.32C158.45 7.25 159 8.61 159 10.39L159 20.08C159 20.33 158.79 20.54 158.53 20.54L156.03 20.54C155.85 20.54 155.68 20.43 155.61 20.27L154.81 18.48L154.7 18.48C154.05 19.31 153.36 19.91 152.63 20.27C151.91 20.64 150.91 20.82 149.65 20.82C148.29 20.82 147.17 20.42 146.27 19.62C145.38 18.82 144.93 17.58 144.93 15.91C144.93 14.24 145.51 13.09 146.65 12.3C147.8 11.51 149.47 11.07 151.68 10.98L153.86 10.91C154.11 10.9 154.31 10.7 154.31 10.45C154.31 9.7 154.12 9.16 153.74 8.83C153.36 8.49 152.83 8.32 152.16 8.32C151.49 8.32 150.8 8.43 150.07 8.64C149.48 8.82 148.88 9.03 148.27 9.27C148.05 9.36 147.78 9.26 147.68 9.04L146.62 6.72C146.52 6.49 146.62 6.22 146.85 6.11C147.58 5.76 148.39 5.49 149.28 5.29C150.35 5.04 151.49 4.92 152.72 4.92L152.72 4.93ZM152.89 13.62C151.72 13.66 150.9 13.87 150.43 14.25C149.97 14.63 149.73 15.15 149.73 15.8C149.73 16.38 149.9 16.8 150.24 17.05C150.57 17.31 151 17.44 151.52 17.44C152.3 17.44 152.96 17.21 153.5 16.73C154.04 16.26 154.31 15.61 154.31 14.79L154.31 14.05C154.31 13.79 154.09 13.58 153.83 13.58L152.89 13.62L152.89 13.62Z" fill="#131019" fill-opacity="1.000000" fill-rule="evenodd"/>
	<path id="Vector" d="M23.4 0.23C21.97 0.23 20.8 1.39 20.8 2.83L20.8 11.56C20.8 12.35 20.16 12.99 19.37 12.99C18.77 12.99 18.24 12.62 18.03 12.07C17.9 11.72 17.69 11.41 17.43 11.16C16.96 10.68 16.32 10.4 15.6 10.4C14.88 10.4 14.23 10.68 13.76 11.16C13.5 11.41 13.3 11.72 13.16 12.07C12.95 12.62 12.42 12.99 11.82 12.99C11.03 12.99 10.39 12.35 10.39 11.56L10.39 5.19C10.4 2.32 8.07 0 5.2 0C2.32 0 0 2.32 0 5.19L0 15.64C0 21.36 4.63 26 10.35 26L15.65 26C21.37 26 26 21.36 26 15.64L26 2.83C26 1.39 24.84 0.23 23.4 0.23Z" fill="#DE0E0E" fill-opacity="1.000000" fill-rule="nonzero"/>
	<path id="Vector" d="M15.6 7.79C17.04 7.79 18.2 6.63 18.2 5.2C18.2 3.76 17.04 2.6 15.6 2.6C14.16 2.6 13 3.76 13 5.19C13 6.63 14.17 7.79 15.6 7.79Z" fill="#DE0E0E" fill-opacity="1.000000" fill-rule="nonzero"/>
</svg>
