<svg width="38.000000" height="97.000000" viewBox="0 0 38 97" fill="none" xmlns="http://www.w3.org/2000/svg" xmlns:xlink="http://www.w3.org/1999/xlink">
	<desc>
			Created with Pixso.
	</desc>
	<defs/>
	<path id="Subtract" d="M38 92.17C37.79 94.87 35.54 97 32.77 97C30.59 97 28.66 95.65 27.88 93.62C27.4 92.37 26.66 91.24 25.72 90.31C24 88.59 21.63 87.54 19 87.54C16.38 87.54 14 88.59 12.28 90.31C11.35 91.24 10.61 92.37 10.12 93.62C9.34 95.65 7.41 97 5.23 97C2.42 97 0.14 94.81 0 92.05L0 0L38 0L38 92.17ZM19.01 59.16C13.76 59.16 9.51 63.4 9.51 68.61C9.51 73.84 13.77 78.08 19.01 78.08C24.25 78.08 28.51 73.84 28.51 68.62C28.51 63.4 24.25 59.16 19.01 59.16Z" fill="#BE9BFF" fill-opacity="1.000000" fill-rule="evenodd"/>
</svg>
