<svg width="13.945312" height="16.299805" viewBox="0 0 13.9453 16.2998" fill="none" xmlns="http://www.w3.org/2000/svg" xmlns:xlink="http://www.w3.org/1999/xlink">
	<desc>
			Created with Pixso.
	</desc>
	<defs/>
	<path id="Icon" d="M7.53 16.29C7.99 16.29 8.41 16.07 8.68 15.7L12.91 9.62C13.7 8.48 14.06 7.09 13.91 5.7L13.58 2.74C13.44 1.48 12.45 0.47 11.18 0.32L9.07 0.07C7.45 -0.12 5.81 0.05 4.26 0.56C3.18 0.92 2.32 1.74 1.9 2.8L0.19 7.14C0.11 7.35 0.05 7.57 0.02 7.8C-0.24 9.74 1.52 11.36 3.43 10.92L7.2 10.08C7.22 10.07 7.24 10.07 7.25 10.08C7.25 10.08 7.27 10.09 7.28 10.1C7.29 10.11 7.3 10.12 7.3 10.13C7.3 10.14 7.3 10.15 7.3 10.17L6.17 14.55C5.94 15.43 6.61 16.29 7.53 16.29Z" fill="#C7BFD6" fill-opacity="1.000000" fill-rule="nonzero"/>
</svg>
