<svg width="17.500000" height="15.290039" viewBox="0 0 17.5 15.29" fill="none" xmlns="http://www.w3.org/2000/svg" xmlns:xlink="http://www.w3.org/1999/xlink">
	<desc>
			Created with Pixso.
	</desc>
	<defs/>
	<path id="Exclude" d="M16.22 0.03C16.86 -0.15 17.5 0.33 17.5 1L17.5 9.91C17.5 10.36 17.19 10.75 16.76 10.88L8.77 13.1C8.59 13.15 8.4 13.14 8.22 13.09L0.71 10.88C0.29 10.76 0 10.37 0 9.92L0 1.02C0 0.35 0.64 -0.13 1.28 0.06L8.21 2.15C8.4 2.2 8.59 2.2 8.78 2.15L16.22 0.03ZM8.5 3.48C8.3 3.48 8.15 3.64 8.14 3.83L8.14 11.83C8.14 12.02 8.3 12.18 8.5 12.18C8.69 12.18 8.85 12.02 8.85 11.83L8.85 3.83C8.84 3.64 8.69 3.48 8.5 3.48Z" fill="#7939CC" fill-opacity="1.000000" fill-rule="nonzero"/>
	<path id="Vector 1084 (Stroke)" d="M16.62 12.1C16.86 12.03 17.11 12.17 17.18 12.41C17.25 12.65 17.11 12.9 16.87 12.97L8.9 15.23C8.63 15.3 8.35 15.3 8.08 15.22L0.62 12.96C0.38 12.89 0.25 12.64 0.32 12.4C0.39 12.17 0.64 12.03 0.87 12.1L8.34 14.36C8.44 14.39 8.55 14.39 8.66 14.36L16.62 12.1Z" fill="#7939CC" fill-opacity="1.000000" fill-rule="nonzero"/>
</svg>
