<svg width="107.993164" height="93.063477" viewBox="0 0 107.993 93.0635" fill="none" xmlns="http://www.w3.org/2000/svg" xmlns:xlink="http://www.w3.org/1999/xlink">
	<desc>
			Created with Pixso.
	</desc>
	<defs/>
	<path id="Union" d="M56.7959 0C85.0713 0 107.993 20.833 107.993 46.5322C107.993 72.2305 85.0713 93.0635 56.7959 93.0635C49.083 93.0635 41.7676 91.5137 35.208 88.7363C35.083 88.6836 34.9492 88.6562 34.8145 88.6562L1.00293 88.6533C0.30957 88.6533 -0.172852 87.9658 0.0615234 87.3145L8.73047 63.2783C8.81543 63.0439 8.80859 62.7871 8.71582 62.5557C6.69922 57.5605 5.59961 52.1631 5.59961 46.5322C5.59961 20.833 28.5205 0 56.7959 0Z" clip-rule="evenodd" fill="#A07CE3" fill-opacity="1.000000" fill-rule="evenodd"/>
	<path id="Union" d="M56.08 23.91C57.16 23.91 58.04 24.81 58.04 25.91L58.04 42.56L74.69 42.56L74.88 42.57C75.87 42.67 76.64 43.53 76.64 44.56C76.64 45.59 75.87 46.45 74.88 46.55L74.69 46.56L58.04 46.56L58.04 63.59L58.03 63.79C57.93 64.8 57.1 65.59 56.08 65.59C55.07 65.59 54.24 64.8 54.14 63.79L54.13 63.59L54.13 46.56L37.86 46.56C36.78 46.56 35.9 45.66 35.9 44.56C35.9 43.46 36.78 42.56 37.86 42.56L54.13 42.56L54.13 25.91C54.13 24.81 55.01 23.91 56.08 23.91Z" fill="#F1EEFB" fill-opacity="1.000000" fill-rule="nonzero"/>
</svg>
