<svg width="93.793945" height="93.000000" viewBox="0 0 93.7939 93" fill="none" xmlns="http://www.w3.org/2000/svg" xmlns:xlink="http://www.w3.org/1999/xlink">
	<desc>
			Created with Pixso.
	</desc>
	<defs/>
	<path id="Vector" d="M9.44 62.39L15.96 66.06L20.06 73.19L25.95 76.22L30.29 83.59L92.64 22.3C94.15 20.81 94.17 18.38 92.69 16.87L77.23 1.14C75.74 -0.37 73.31 -0.39 71.8 1.1L9.44 62.39Z" fill="#F1EEFB" fill-opacity="1.000000" fill-rule="evenodd"/>
	<path id="Vector" d="M90.63 18.89L92.69 16.87L77.23 1.14L75.17 3.16L90.63 18.89ZM90.62 20.25L30.9 78.96L28.01 74.04L22.13 71.02L18.06 63.94L14.19 61.76L73.82 3.15C74.19 2.78 74.8 2.78 75.17 3.16L77.23 1.14L77.08 1.01C75.64 -0.32 73.41 -0.34 71.94 0.96L71.8 1.1L9.44 62.39L15.96 66.06L20.06 73.19L25.95 76.22L30.29 83.59L92.64 22.3L92.78 22.16C94.11 20.71 94.13 18.49 92.82 17.02L92.69 16.87L90.63 18.89C91.01 19.27 91 19.87 90.62 20.25Z" fill="#A07CE3" fill-opacity="1.000000" fill-rule="nonzero"/>
	<path id="Vector" d="M0.04 91.74C-0.2 92.48 0.51 93.19 1.25 92.95L30.36 83.52L27.72 77.39L21.17 72.2L16.09 65.55L9.52 62.32L0.04 91.74Z" fill="#A07CE3" fill-opacity="1.000000" fill-rule="nonzero"/>
	<path id="Vector" d="M0.11 91.69C-0.13 92.43 0.57 93.13 1.31 92.89L13.3 89.05L12.11 86.31L9.18 83.99L6.91 81.02L3.97 79.56L0.11 91.69Z" fill="#67359D" fill-opacity="1.000000" fill-rule="evenodd"/>
	<path id="Vector" d="M63.2 12.2L74.12 1.28L92.59 19.75L81.67 30.67L63.2 12.2Z" fill="#A07CE3" fill-opacity="1.000000" fill-rule="nonzero"/>
</svg>
