<svg width="137.730469" height="94.143555" viewBox="0 0 137.73 94.1436" fill="none" xmlns="http://www.w3.org/2000/svg" xmlns:xlink="http://www.w3.org/1999/xlink">
	<desc>
			Created with Pixso.
	</desc>
	<defs/>
	<path id="Vector" d="M91.82 22.72C91.82 35.24 81.65 45.41 69.1 45.41C56.58 45.41 46.4 35.24 46.4 22.69C46.4 10.17 56.55 0 69.1 0C81.65 0 91.82 10.17 91.82 22.72ZM19.71 54.56C30 54.56 38.34 46.25 38.34 36.03C38.34 25.79 30 17.48 19.71 17.48C9.42 17.48 1.09 25.79 1.09 36.01C1.09 46.25 9.44 54.56 19.71 54.56ZM118.4 54.56C128.69 54.56 137.04 46.25 137.04 36.03C137.04 25.79 128.69 17.48 118.4 17.48C108.12 17.48 99.79 25.79 99.79 36.01C99.79 46.25 108.14 54.56 118.4 54.56ZM55.5 93.9L90.78 93.9C91.88 93.9 92.76 92.97 92.69 91.87C92.38 87.16 92.06 82.71 91.83 81.34C91.28 78.05 89.64 59.99 68.84 59.99C48.04 59.99 46.4 78.05 45.85 81.88C45.63 83.42 45.32 87.5 45.04 91.84C44.96 92.94 45.83 93.87 46.93 93.88C48.79 93.89 51.8 93.9 55.5 93.9ZM8.56 94.14L37.11 94.14C38.22 94.14 39.1 93.21 39.02 92.1C38.78 88.4 38.53 84.97 38.35 83.88C37.9 81.2 36.55 66.46 19.5 66.46C2.44 66.46 1.09 81.2 0.64 84.33C0.47 85.54 0.23 88.68 0 92.09C-0.07 93.19 0.79 94.12 1.89 94.12C3.43 94.13 5.76 94.14 8.56 94.14ZM107.26 94.14L135.81 94.14C136.92 94.14 137.79 93.21 137.72 92.1C137.48 88.4 137.23 84.97 137.04 83.88C136.6 81.2 135.25 66.46 118.19 66.46C101.14 66.46 99.79 81.2 99.34 84.33C99.17 85.54 98.93 88.68 98.7 92.09C98.62 93.19 99.49 94.12 100.59 94.12C102.13 94.13 104.45 94.14 107.26 94.14Z" fill="#A07CE3" fill-opacity="1.000000" fill-rule="evenodd"/>
	<path id="Vector" d="M91.82 22.72C91.82 10.17 81.65 0 69.1 0C56.55 0 46.4 10.17 46.4 22.69C46.4 35.24 56.58 45.41 69.1 45.41C81.65 45.41 91.82 35.24 91.82 22.72ZM81.66 93.9C85.47 93.9 88.78 93.9 90.78 93.9C91.88 93.9 92.76 92.97 92.69 91.87C92.38 87.16 92.06 82.71 91.83 81.34C91.28 78.05 89.64 59.99 68.84 59.99C48.04 59.99 46.4 78.05 45.85 81.88C45.63 83.42 45.32 87.5 45.04 91.84C44.96 92.94 45.83 93.87 46.93 93.88C48.79 93.89 51.8 93.9 55.5 93.9L81.66 93.9ZM38.34 36.03C38.34 25.79 30 17.48 19.71 17.48C9.42 17.48 1.09 25.79 1.09 36.01C1.09 46.25 9.44 54.56 19.71 54.56C30 54.56 38.34 46.25 38.34 36.03ZM30 94.14C32.91 94.14 35.45 94.14 37.11 94.14C38.22 94.14 39.1 93.21 39.02 92.1C38.78 88.4 38.53 84.97 38.35 83.88C37.9 81.2 36.55 66.46 19.5 66.46C2.44 66.46 1.09 81.2 0.64 84.33C0.47 85.54 0.23 88.68 0 92.09C-0.07 93.19 0.79 94.12 1.89 94.12C3.43 94.13 5.76 94.14 8.56 94.14L30 94.14ZM137.04 36.03C137.04 25.79 128.69 17.48 118.4 17.48C108.12 17.48 99.79 25.79 99.79 36.01C99.79 46.25 108.14 54.56 118.4 54.56C128.69 54.56 137.04 46.25 137.04 36.03ZM128.7 94.14C131.61 94.14 134.15 94.14 135.81 94.14C136.92 94.14 137.79 93.21 137.72 92.1C137.48 88.4 137.23 84.97 137.04 83.88C136.6 81.2 135.25 66.46 118.19 66.46C101.14 66.46 99.79 81.2 99.34 84.33C99.17 85.54 98.93 88.68 98.7 92.09C98.62 93.19 99.49 94.12 100.59 94.12C102.13 94.13 104.45 94.14 107.26 94.14L128.7 94.14Z" stroke="#000000" stroke-opacity="0" stroke-width="1.000000"/>
</svg>
