<svg width="6.207031" height="11.456055" viewBox="0 0 6.20703 11.4561" fill="none" xmlns="http://www.w3.org/2000/svg" xmlns:xlink="http://www.w3.org/1999/xlink">
	<desc>
			Created with Pixso.
	</desc>
	<defs/>
	<path id="?" d="M2.46 7.88C2.04 7.88 1.71 7.55 1.71 7.13C1.71 6.66 1.8 6.23 1.98 5.83C2.16 5.43 2.47 5 2.91 4.55C3.22 4.24 3.43 3.95 3.56 3.71C3.69 3.45 3.75 3.21 3.75 2.97C3.75 2.66 3.64 2.42 3.4 2.25C3.17 2.08 2.84 2 2.43 2C2.01 2 1.59 2.06 1.16 2.2C0.63 2.38 0 2.02 0 1.46L0 1.21C0 0.9 0.16 0.62 0.43 0.49C0.71 0.37 1 0.27 1.32 0.19C1.83 0.06 2.33 0 2.81 0C3.45 0 4.03 0.09 4.54 0.28C5.06 0.46 5.47 0.75 5.75 1.13C6.05 1.51 6.2 2.02 6.2 2.63C6.2 2.99 6.14 3.33 6.01 3.66C5.88 3.99 5.7 4.3 5.47 4.59C5.24 4.87 4.98 5.15 4.67 5.4C4.14 5.83 3.78 6.2 3.58 6.51C3.39 6.81 3.27 7.1 3.23 7.4C3.19 7.68 2.96 7.88 2.68 7.88L2.46 7.88ZM2.41 11.45C1.7 11.45 1.13 10.88 1.13 10.17C1.13 9.46 1.7 8.89 2.41 8.89L2.46 8.89C3.17 8.89 3.74 9.46 3.74 10.17C3.74 10.88 3.17 11.45 2.46 11.45L2.41 11.45Z" fill="#9747FF" fill-opacity="1.000000" fill-rule="nonzero"/>
</svg>
