<svg width="13.943359" height="16.299805" viewBox="0 0 13.9434 16.2998" fill="none" xmlns="http://www.w3.org/2000/svg" xmlns:xlink="http://www.w3.org/1999/xlink">
	<desc>
			Created with Pixso.
	</desc>
	<defs/>
	<path id="Icon" d="M6.41 0C5.95 0 5.52 0.22 5.26 0.59L1.03 6.67C0.23 7.81 -0.12 9.2 0.03 10.59L0.35 13.55C0.49 14.81 1.49 15.82 2.75 15.97L4.87 16.22C6.49 16.41 8.12 16.24 9.67 15.73C10.75 15.37 11.62 14.55 12.03 13.49L13.74 9.15C13.83 8.94 13.88 8.72 13.91 8.49C14.18 6.55 12.42 4.93 10.5 5.37L6.6 6.24L7.76 1.74C7.99 0.86 7.32 0 6.41 0Z" fill="#C7BFD6" fill-opacity="1.000000" fill-rule="nonzero"/>
</svg>
