<svg width="41.000000" height="41.000000" viewBox="0 0 41 41" fill="none" xmlns="http://www.w3.org/2000/svg" xmlns:xlink="http://www.w3.org/1999/xlink">
	<desc>
			Created with Pixso.
	</desc>
	<defs/>
	<rect id="Перацсці Фіалет" rx="20.000000" width="40.000000" height="40.000000" transform="translate(0.500000 0.500000)" fill="#7939CC" fill-opacity="1.000000"/>
	<path id="Line 299 (Stroke)" d="M17.5 16C17.5 15.58 17.83 15.25 18.25 15.25L25 15.25C25.41 15.25 25.75 15.58 25.75 16L25.75 22.75C25.75 23.16 25.41 23.5 25 23.5C24.58 23.5 24.25 23.16 24.25 22.75L24.25 17.81L16.53 25.53C16.23 25.82 15.76 25.82 15.46 25.53C15.17 25.23 15.17 24.76 15.46 24.46L23.18 16.75L18.25 16.75C17.83 16.75 17.5 16.41 17.5 16Z" fill="#F1EEFB" fill-opacity="1.000000" fill-rule="nonzero"/>
</svg>
