<svg width="40.453125" height="40.453125" viewBox="0 0 40.4531 40.4531" fill="none" xmlns="http://www.w3.org/2000/svg" xmlns:xlink="http://www.w3.org/1999/xlink">
	<desc>
			Created with Pixso.
	</desc>
	<defs/>
	<rect id="Перацсці Красный" rx="19.726667" width="39.453335" height="39.453335" transform="translate(0.500000 0.500000)" fill="#DE0E0E" fill-opacity="1.000000"/>
	<path id="Line 299 (Stroke)" d="M17.22 15.72C17.22 15.31 17.56 14.97 17.97 14.97L24.72 14.97C25.14 14.97 25.47 15.31 25.47 15.72L25.47 22.47C25.47 22.89 25.14 23.22 24.72 23.22C24.31 23.22 23.97 22.89 23.97 22.47L23.97 17.53L16.25 25.25C15.96 25.54 15.48 25.54 15.19 25.25C14.9 24.96 14.9 24.48 15.19 24.19L22.91 16.47L17.97 16.47C17.56 16.47 17.22 16.14 17.22 15.72Z" fill="#F1EEFB" fill-opacity="1.000000" fill-rule="nonzero"/>
</svg>
