<svg width="40.000000" height="40.000000" viewBox="0 0 40 40" fill="none" xmlns="http://www.w3.org/2000/svg" xmlns:xlink="http://www.w3.org/1999/xlink">
	<desc>
			Created with Pixso.
	</desc>
	<defs/>
	<path id="Vector" d="M31.99 4.36C31.99 2.15 33.78 0.36 35.99 0.36C38.2 0.36 40 2.15 40 4.36L40 24.07C40 32.87 32.87 40 24.07 40L15.92 40C7.12 40 0 32.87 0 24.07L0 7.99C0 3.58 3.58 0 7.99 0C12.41 0 15.99 3.58 15.98 7.99L15.98 17.79C15.98 19.01 16.97 19.99 18.19 19.99C19.1 19.99 19.92 19.42 20.25 18.57C20.45 18.04 20.76 17.56 21.16 17.17C21.88 16.44 22.88 16 23.99 16C25.1 16 26.09 16.44 26.82 17.17C27.21 17.56 27.53 18.04 27.73 18.57C28.05 19.42 28.87 19.99 29.79 19.99C31.01 19.99 31.99 19.01 31.99 17.79L31.99 4.36ZM28 8C28 10.2 26.21 12 24 12C21.79 12 20 10.2 20 7.99C20 5.79 21.79 4 24 4C26.21 4 28 5.79 28 8Z" fill="#DE0E0E" fill-opacity="1.000000" fill-rule="evenodd"/>
</svg>
