<svg width="13.393555" height="12.934570" viewBox="0 0 13.3936 12.9346" fill="none" xmlns="http://www.w3.org/2000/svg" xmlns:xlink="http://www.w3.org/1999/xlink">
	<desc>
			Created with Pixso.
	</desc>
	<defs/>
	<path id="Union" d="M5.55469 11.1084L5.26855 11.1016C2.42871 10.958 0.150391 8.68066 0.00683594 5.83984L0 5.55469C0 2.4873 2.4873 0 5.55469 0L5.83984 0.00683594C8.77441 0.155273 11.1084 2.58301 11.1084 5.55469L11.1016 5.83984C11.0488 6.87695 10.7129 7.83789 10.168 8.64844L13.1738 11.6543L13.2256 11.7109C13.4658 12.0059 13.4482 12.4404 13.1738 12.7148C12.8994 12.9893 12.4648 13.0068 12.1699 12.7666L12.1133 12.7148L9.16992 9.77148C8.19824 10.6045 6.93555 11.1084 5.55469 11.1084ZM9.6084 5.55469C9.6084 3.31543 7.79395 1.5 5.55469 1.5C3.31543 1.5 1.5 3.31543 1.5 5.55469C1.5 7.79395 3.31543 9.6084 5.55469 9.6084C7.79395 9.6084 9.6084 7.79395 9.6084 5.55469Z" clip-rule="evenodd" fill="#A07CE3" fill-opacity="1.000000" fill-rule="evenodd"/>
</svg>
