<svg width="22.000000" height="16.000000" viewBox="0 0 22 16" fill="none" xmlns="http://www.w3.org/2000/svg" xmlns:xlink="http://www.w3.org/1999/xlink">
	<desc>
			Created with Pixso.
	</desc>
	<defs/>
	<path id="Subtract" d="M22 4C22 1.79 20.2 0 18 0L4 0C1.79 0 0 1.79 0 4L0 4.06L11.4 8.16L11.44 8.17C11.48 8.18 11.53 8.18 11.57 8.16L22 4.08L22 4ZM12.12 9.56C11.72 9.71 11.29 9.72 10.89 9.57L0 5.65L0 12C0 14.2 1.79 16 4 16L18 16C20.2 16 22 14.2 22 12L22 5.69L12.12 9.56Z" fill="#7939CC" fill-opacity="1.000000" fill-rule="evenodd"/>
</svg>
