<svg width="15.640625" height="13.402344" viewBox="0 0 15.6406 13.4023" fill="none" xmlns="http://www.w3.org/2000/svg" xmlns:xlink="http://www.w3.org/1999/xlink">
	<desc>
			Created with Pixso.
	</desc>
	<defs/>
	<path id="Line 333 (Stroke)" d="M14.84 0L14.92 0C15.32 0.05 15.64 0.43 15.64 0.9C15.64 1.36 15.32 1.75 14.92 1.79L14.84 1.8L0.79 1.8C0.35 1.8 0 1.39 0 0.9C0 0.4 0.35 0 0.79 0L14.84 0Z" fill="#7939CC" fill-opacity="1.000000" fill-rule="nonzero"/>
	<path id="Line 333 (Stroke)" d="M14.84 5.8L14.92 5.8C15.32 5.85 15.64 6.23 15.64 6.7C15.64 7.16 15.32 7.55 14.92 7.59L14.84 7.6L0.79 7.6C0.35 7.6 0 7.19 0 6.7C0 6.2 0.35 5.8 0.79 5.8L14.84 5.8Z" fill="#7939CC" fill-opacity="1.000000" fill-rule="nonzero"/>
	<path id="Line 333 (Stroke)" d="M14.84 11.6L14.92 11.6C15.32 11.65 15.64 12.03 15.64 12.5C15.64 12.96 15.32 13.35 14.92 13.39L14.84 13.4L0.79 13.4C0.35 13.4 0 12.99 0 12.5C0 12 0.35 11.6 0.79 11.6L14.84 11.6Z" fill="#7939CC" fill-opacity="1.000000" fill-rule="nonzero"/>
</svg>
