<svg width="17.500000" height="12.500000" viewBox="0 0 17.5 12.5" fill="none" xmlns="http://www.w3.org/2000/svg" xmlns:xlink="http://www.w3.org/1999/xlink">
	<desc>
			Created with Pixso.
	</desc>
	<defs/>
	<path id="Icon" d="M0.75 3L10.62 3C10.93 3.87 11.76 4.5 12.75 4.5C13.73 4.5 14.56 3.87 14.87 3L16.75 3C17.16 3 17.5 2.66 17.5 2.25C17.5 1.83 17.16 1.5 16.75 1.5L14.87 1.5C14.56 0.62 13.73 0 12.75 0C11.76 0 10.93 0.62 10.62 1.5L0.75 1.5C0.33 1.5 0 1.83 0 2.25C0 2.66 0.33 3 0.75 3ZM17.5 10.25C17.5 10.66 17.16 11 16.75 11L6.87 11C6.56 11.87 5.73 12.5 4.75 12.5C3.76 12.5 2.93 11.87 2.62 11L0.75 11C0.33 11 0 10.66 0 10.25C0 9.83 0.33 9.5 0.75 9.5L2.62 9.5C2.93 8.62 3.76 8 4.75 8C5.73 8 6.56 8.62 6.87 9.5L16.75 9.5C17.16 9.5 17.5 9.83 17.5 10.25Z" fill="#7939CC" fill-opacity="1.000000" fill-rule="evenodd"/>
</svg>
