<svg width="15.642578" height="15.642578" viewBox="0 0 15.6426 15.6426" fill="none" xmlns="http://www.w3.org/2000/svg" xmlns:xlink="http://www.w3.org/1999/xlink">
	<desc>
			Created with Pixso.
	</desc>
	<defs/>
	<path id="Union" d="M7.75 0C8.16 0 8.5 0.33 8.5 0.75L8.5 7L14.89 7L14.96 7C15.34 7.04 15.64 7.36 15.64 7.75C15.64 8.13 15.34 8.45 14.96 8.49L14.89 8.5L8.5 8.5L8.5 14.89L8.49 14.96C8.45 15.34 8.13 15.64 7.75 15.64C7.36 15.64 7.04 15.34 7 14.96L7 14.89L7 8.5L0.75 8.5C0.33 8.5 0 8.16 0 7.75C0 7.33 0.33 7 0.75 7L7 7L7 0.75C7 0.33 7.33 0 7.75 0Z" fill="#9747FF" fill-opacity="1.000000" fill-rule="nonzero"/>
</svg>
