<svg width="67.800781" height="52.138672" viewBox="0 0 67.8008 52.1387" fill="none" xmlns="http://www.w3.org/2000/svg" xmlns:xlink="http://www.w3.org/1999/xlink">
	<desc>
			Created with Pixso.
	</desc>
	<defs/>
	<path id="“" d="M0 38.03L0 33.93C0 27.13 1.19 20.87 3.59 15.13C5.4 10.83 8.13 6.5 11.81 2.12C13.98 -0.46 17.8 -0.68 20.45 1.41C23.52 3.83 23.78 8.34 21.39 11.43C19.58 13.78 18.18 16.01 17.19 18.13C16.02 20.67 15.24 23.32 14.86 26.1C14.66 27.62 12.76 28.42 11.64 27.37C10.48 26.28 11.25 24.33 12.84 24.33L22.45 24.33C25.51 24.33 28 26.82 28 29.88L28 38.23C28 45.91 21.77 52.13 14.09 52.13C6.31 52.13 0 45.82 0 38.03ZM39.8 38.03L39.8 33.93C39.8 27.13 41 20.87 43.4 15.13C45.19 10.83 47.93 6.5 51.61 2.12C53.78 -0.46 57.6 -0.68 60.25 1.41C63.33 3.83 63.58 8.34 61.19 11.43C59.38 13.78 57.98 16.01 57 18.13C55.82 20.67 55.04 23.32 54.66 26.1C54.46 27.62 52.56 28.42 51.44 27.37C50.28 26.28 51.05 24.33 52.64 24.33L62.25 24.33C65.31 24.33 67.8 26.82 67.8 29.88L67.8 38.23C67.8 45.91 61.57 52.13 53.9 52.13C46.11 52.13 39.8 45.82 39.8 38.03Z" fill="#DE0E0E" fill-opacity="1.000000" fill-rule="nonzero"/>
</svg>
