<svg width="37.058594" height="78.000000" viewBox="0 0 37.0586 78" fill="none" xmlns="http://www.w3.org/2000/svg" xmlns:xlink="http://www.w3.org/1999/xlink">
	<desc>
			Created with Pixso.
	</desc>
	<defs/>
	<path id="Vector" d="M36.4 18.87C36.4 29.27 28.48 37.72 18.71 37.72C8.96 37.72 1.03 29.27 1.03 18.85C1.03 8.45 8.94 0 18.71 0C28.48 0 36.4 8.45 36.4 18.87ZM8.12 78L35.06 78C36.21 78 37.12 77.03 37.05 75.88C36.82 72.13 36.58 68.66 36.41 67.56C35.98 64.83 34.7 49.83 18.51 49.83C2.31 49.83 1.03 64.83 0.61 68.01C0.44 69.24 0.22 72.42 0 75.86C-0.07 77.01 0.83 77.98 1.98 77.98C3.43 77.99 5.57 78 8.12 78Z" fill="#BE9BFF" fill-opacity="1.000000" fill-rule="evenodd"/>
	<path id="Vector" d="M36.4 18.87C36.4 8.45 28.48 0 18.71 0C8.94 0 1.03 8.45 1.03 18.85C1.03 29.27 8.96 37.72 18.71 37.72C28.48 37.72 36.4 29.27 36.4 18.87ZM28.49 78C31.14 78 33.48 78 35.06 78C36.21 78 37.12 77.03 37.05 75.88C36.82 72.13 36.58 68.66 36.41 67.56C35.98 64.83 34.7 49.83 18.51 49.83C2.31 49.83 1.03 64.83 0.61 68.01C0.44 69.24 0.22 72.42 0 75.87C-0.07 77.01 0.83 77.98 1.98 77.98C3.44 77.99 5.57 78 8.12 78L28.49 78Z" stroke="#000000" stroke-opacity="0" stroke-width="1.000000"/>
</svg>
