<svg width="24.620117" height="52.000000" viewBox="0 0 24.6201 52" fill="none" xmlns="http://www.w3.org/2000/svg" xmlns:xlink="http://www.w3.org/1999/xlink">
	<desc>
			Created with Pixso.
	</desc>
	<defs/>
	<path id="Vector" d="M24.22 12.58C24.22 19.51 18.94 25.15 12.43 25.15C5.93 25.15 0.64 19.51 0.64 12.56C0.64 5.63 5.92 0 12.43 0C18.94 0 24.22 5.63 24.22 12.58ZM5.37 52L22.62 52C23.77 52 24.68 51.03 24.61 49.88C24.47 47.66 24.33 45.7 24.23 45.04C23.94 43.22 23.09 33.22 12.29 33.22C1.5 33.22 0.64 43.22 0.36 45.34C0.26 46.07 0.13 47.86 0 49.87C-0.07 51.02 0.83 51.98 1.98 51.99C2.88 51.99 4.04 52 5.37 52Z" fill="#E5D7FF" fill-opacity="1.000000" fill-rule="evenodd"/>
	<path id="Vector" d="M24.22 12.58C24.22 5.63 18.94 0 12.43 0C5.92 0 0.64 5.63 0.64 12.56C0.64 19.51 5.93 25.15 12.43 25.15C18.94 25.15 24.22 19.51 24.22 12.58ZM18.95 52C20.35 52 21.63 52 22.62 52C23.77 52 24.68 51.03 24.61 49.88C24.47 47.66 24.33 45.7 24.23 45.04C23.94 43.22 23.09 33.22 12.29 33.22C1.5 33.22 0.64 43.22 0.36 45.34C0.26 46.07 0.13 47.86 0 49.87C-0.07 51.02 0.83 51.99 1.98 51.99C2.88 51.99 4.04 52 5.37 52L18.95 52Z" stroke="#000000" stroke-opacity="0" stroke-width="1.000000"/>
</svg>
