<svg width="22.000000" height="15.400391" viewBox="0 0 22 15.4004" fill="none" xmlns="http://www.w3.org/2000/svg" xmlns:xlink="http://www.w3.org/1999/xlink">
	<desc>
			Created with Pixso.
	</desc>
	<defs/>
	<path id="Vector" d="M19.59 0.45C20.54 0.71 21.28 1.45 21.54 2.4C21.99 4.12 22 7.7 22 7.7C22 7.7 22 11.28 21.54 12.99C21.28 13.94 20.54 14.68 19.59 14.94C17.87 15.4 11 15.4 11 15.4C11 15.4 4.12 15.4 2.4 14.94C1.45 14.68 0.71 13.94 0.45 12.99C0 11.28 0 7.7 0 7.7C0 7.7 0 4.12 0.45 2.4C0.71 1.45 1.45 0.71 2.4 0.45C4.12 0 11 0 11 0C11 0 17.87 0 19.59 0.45ZM14.51 7.7L8.79 11L8.79 4.4L14.51 7.7Z" fill="#A07CE3" fill-opacity="1.000000" fill-rule="evenodd"/>
</svg>
